inDegrees=no
num_controls=7
num_derivatives=13
num_iterations=168
num_multipliers=7
num_parameters=0
num_slacks=7
num_states=26
objective=5.093470
objective_accelerations=0.326364
objective_balance=0.031967
objective_effort=0.163695
objective_height=4.463304
objective_ligament=0.108141
solver_duration=1849.306106
status=Solve_Succeeded
success=true
DataType=double
version=3
OpenSimVersion=4.4-2022-07-23-0e9fedc
endheader
time	/jointset/ground_pelvis/pelvis_tilt/value	/jointset/ground_pelvis/pelvis_tx/value	/jointset/ground_pelvis/pelvis_ty/value	/jointset/hip_l/hip_flexion_l/value	/jointset/hip_l/hip_adduction_l/value	/jointset/hip_l/hip_rotation_l/value	/jointset/back/lumbar_extension/value	/jointset/patellofemoral_l/patellar_flexion_l/value	/jointset/knee_l/knee_flexion_l/value	/jointset/knee_l/knee_adduction_l/value	/jointset/knee_l/knee_rotation_l/value	/jointset/ankle_l/ankle_angle_l/value	/jointset/subtalar_l/subtalar_angle_l/value	/jointset/ground_pelvis/pelvis_tilt/speed	/jointset/ground_pelvis/pelvis_tx/speed	/jointset/ground_pelvis/pelvis_ty/speed	/jointset/hip_l/hip_flexion_l/speed	/jointset/hip_l/hip_adduction_l/speed	/jointset/hip_l/hip_rotation_l/speed	/jointset/back/lumbar_extension/speed	/jointset/patellofemoral_l/patellar_flexion_l/speed	/jointset/knee_l/knee_flexion_l/speed	/jointset/knee_l/knee_adduction_l/speed	/jointset/knee_l/knee_rotation_l/speed	/jointset/ankle_l/ankle_angle_l/speed	/jointset/subtalar_l/subtalar_angle_l/speed	/forceset/tau_hip_flexion_l	/forceset/tau_hip_adduction_l	/forceset/tau_hip_rotation_l	/forceset/tau_knee_flexion_l	/forceset/tau_ankle_angle_l	/forceset/tau_subtalar_angle_l	/forceset/tau_lumbar_extension	lambda_cid13_p0	lambda_cid13_p1	lambda_cid13_p2	lambda_cid13_p3	lambda_cid13_p4	lambda_cid13_p5	lambda_cid14_p0	/jointset/ground_pelvis/pelvis_tilt/accel	/jointset/ground_pelvis/pelvis_tx/accel	/jointset/ground_pelvis/pelvis_ty/accel	/jointset/hip_l/hip_flexion_l/accel	/jointset/hip_l/hip_adduction_l/accel	/jointset/hip_l/hip_rotation_l/accel	/jointset/back/lumbar_extension/accel	/jointset/patellofemoral_l/patellar_flexion_l/accel	/jointset/knee_l/knee_flexion_l/accel	/jointset/knee_l/knee_adduction_l/accel	/jointset/knee_l/knee_rotation_l/accel	/jointset/ankle_l/ankle_angle_l/accel	/jointset/subtalar_l/subtalar_angle_l/accel	gamma_cid13_p0	gamma_cid13_p1	gamma_cid13_p2	gamma_cid13_p3	gamma_cid13_p4	gamma_cid13_p5	gamma_cid14_p0
1.5	-0.1411371995723686	0.0942683721070797	0.827626018341416	0.5847137619612299	-0.438131638562588	-0.3145828273568982	-0.1928422339174856	0.645235714588788	0.6452357145887829	-0.1588967695554565	-0.1700244276210097	0.2354085997797164	0.04271908780798445	0.07380414788032083	0.03438551133147248	0.2670705468338098	-1.055144026756222	0.2591058747678216	-0.6306806553981403	0.3524116585312115	-1.576610691519056	-1.576610691519055	-0.02598921994156846	0.0345497201080873	-0.7033988934810935	-0.1033179605042114	-0.06072886267803693	0.04355671819665137	-0.01154451785150689	-0.2016722167544346	-0.04781162316352177	0.02174538321362308	0.08936840255116628	-48.33110140788425	-6.486032884584481	6.985526570273906	4.209259448212674	-532.8768166224702	-67.70260778507904	-32.9468123827297	0.01762197805765223	0.1103871475350526	-0.2776525752116322	-0.4444452549559336	0.5250069788807982	-0.1280067416668142	0.7523653646678929	-1.122687564827541	-1.122687564827537	-0.1080219363718802	0.1348895550947213	-0.5083562389181594	0.3848622134566601	5.056206253221879e-08	7.776082034879215e-07	-9.266537979359105e-08	1.67088081539938e-07	-1.114960895360478e-08	4.087572194979562e-07	8.029404121181875e-08
1.51	-0.1403984490484578	0.0946176998959336	0.8302822366000006	0.5741417372883658	-0.4355148181675954	-0.3208961535689198	-0.189280855807079	0.6294158777651558	0.6294158777651462	-0.1591620777050722	-0.1696734565368049	0.228350129619679	0.04170497647741789	0.0739432416141303	0.03547407532849726	0.2641187288261655	-1.059105908025951	0.2642337656154318	-0.6318947252655173	0.359809338535541	-1.587131846748768	-1.587131846748765	-0.02707077771972776	0.03563760977061296	-0.70819500279522	-0.09948640225536184	-0.05852139219379363	0.0419244973250678	-0.01156848172440821	-0.1990286940267423	-0.04509232522723795	0.02130525879745284	0.08725745529496562	-47.39407700771147	-6.496064045484898	7.029515181312298	3.902106433679652	-531.0671127755559	-67.72500165055226	-33.61953618073419	0.01162671440757163	0.107231972900172	-0.3121080227325412	-0.3488312402555376	0.5029356381641	-0.1045650213521435	0.7252755662164054	-0.9831213404799433	-0.9831213404795774	-0.1078541837556879	0.09469790403211191	-0.4501894786376512	0.3848610469341612	4.200764010981995e-08	8.169316356969597e-07	-6.220943194968656e-08	1.776356310239065e-07	-2.095305308770206e-08	4.059840407774953e-07	7.946406595681858e-08
1.52	-0.1396583928585331	0.09497774151418063	0.8329073043566702	0.5635347394673537	-0.4328474677640338	-0.3272189120620313	-0.1856471396470478	0.6134975710215338	0.6134975710215287	-0.1594381277295155	-0.169311814709535	0.2212467081263052	0.04072969241260681	0.07406528108253098	0.03652827721009596	0.2608404464508564	-1.062138656386647	0.2692118764815603	-0.6325671116160551	0.3668792684559037	-1.596304675515958	-1.596304675515952	-0.02813759490659525	0.0366838687211625	-0.7123891601484579	-0.09555250735311073	-0.05631392170952894	0.04029227645348716	-0.01159244559731152	-0.1963851712990451	-0.04237302729095278	0.02086513438128742	0.08514650803878254	-46.4648246874033	-6.505359789074864	7.074101586988942	3.594214695913725	-529.3852879642237	-67.77782205631952	-34.27821964471388	0.01421112497595004	0.1035147244497966	-0.3429454487446014	-0.2586186731491634	0.4950509825844882	-0.01967003829895875	0.6868153478745697	-0.8530222723232881	-0.8530222723233085	-0.1050738181134925	0.1265634126995138	-0.3879658467404946	0.405329544136957	3.921333421414509e-08	8.50486535439157e-07	-5.726104449768158e-08	1.848568450584587e-07	-2.328531519702028e-08	4.138347441348297e-07	8.152623598232645e-08
1.53	-0.1389172004038868	0.09534813472402714	0.8354979875262954	0.5529020905803701	-0.4301311723005298	-0.3335456986110131	-0.1819444787776523	0.5974943939833183	0.5974943939833111	-0.1597248548105041	-0.1689399860415196	0.2141043897072966	0.03979417151196563	0.07416954568668636	0.0375422635875448	0.2572447202436849	-1.064228313875249	0.274016134983247	-0.6326999099167058	0.373587343673661	-1.604091145581713	-1.604091145581712	-0.02920501219402115	0.03767169208825814	-0.7159687497322926	-0.09153862634310697	-0.0539862772375638	0.0384668074588388	-0.01164991642541377	-0.1938274344058463	-0.03947625628610483	0.02041119211679511	0.08293460562495503	-45.47712631676872	-6.517945653369249	7.118135541197941	3.261917616168704	-527.656694239335	-67.86110782903259	-34.91964706764035	0.007964302261047154	0.09916352205912089	-0.3756092269388706	-0.1597409242248791	0.4683711363390585	0.003529823430483212	0.6529693463939208	-0.7055392739084786	-0.7055392739092267	-0.1070246150139612	0.08334741080620166	-0.3270598844593192	0.401243785129945	4.253915212811439e-08	8.779123694353354e-07	-7.941443996206953e-08	1.885438276780061e-07	-1.767944640501084e-08	4.329733221998214e-07	8.666131036837412e-08
